:SAMPLES-PER-SECOND 30
:FULLY-SPECIFIED
:DEGREES
1424
root  -39.9392 36.6349 -3.58096 -24.1992 -86.9181 64.1108
RightUpLeg  -80.3861 -15.6396 21.7819
RightLeg  43.6324 0.60607 0.308271
RightFoot  -2.04074 1.06237 -13.1554
RightToes  0.00048216 0.542163 -0.142577
Spine  74.5073 -4.40755 6.55869
Spine1  2.43966 0.591354 -1.47748
HEad  -32.8268 -5.26494 -0.297572
LeftShoulder1  6.98949 -26.5853 -16.325
LeftArm  -94.0363 -55.5162 32.0047
LeftForeArm  4.64014 -20.0176 -2.49756
LeftHand  -0.25398 0.0180481 5.50724
RightShoulder  2.06732 10.8703 6.76873
RightArm  -81.3374 58.7099 -22.6697
RightForeArm  -16.0783 19.9734 4.77419
RightHand  -0.58152 10.5384 -4.75249
LeftUpLeg  -77.528 17.072 -26.6153
LeftLeg  40.3629 0.345337 0.702558
LeftFoot  -4.75537 -0.470899 8.66632
LeftToes  1.06244e-005 4.65855e-005 -8.18506e-006
1425
root  -39.9631 36.6312 -3.50864 -32.3621 -86.9203 72.3191
RightUpLeg  -80.6789 -15.9749 22.0695
RightLeg  43.7807 0.860275 0.571496
RightFoot  -1.98301 1.07563 -13.2298
RightToes  0.00048216 0.542163 -0.142577
Spine  74.6292 -4.46942 6.27866
Spine1  2.92613 0.362051 -1.53465
HEad  -32.9417 -4.85877 -0.296975
LeftShoulder1  6.71168 -26.1699 -15.6712
LeftArm  -95.4633 -55.2261 31.4639
LeftForeArm  5.52264 -20.922 -3.17961
LeftHand  -0.25398 0.0180481 5.50724
RightShoulder  1.83453 10.5482 5.27628
RightArm  -82.1095 58.4806 -22.19
RightForeArm  -16.7441 20.5622 4.95629
RightHand  -0.701314 10.2923 -5.69722
LeftUpLeg  -77.4103 16.6845 -26.3495
LeftLeg  40.5292 0.87133 1.18771
LeftFoot  -4.72448 -0.460159 8.43696
LeftToes  1.06244e-005 4.65855e-005 -8.18506e-006
1426
root  -39.9527 36.5924 -3.44414 -39.4631 -86.8875 79.4001
RightUpLeg  -80.8722 -16.2998 22.4687
RightLeg  43.8097 1.00991 0.726216
RightFoot  -2.32106 1.04674 -13.3914
RightToes  0.00048216 0.542163 -0.142577
Spine  74.594 -4.59412 5.93837
Spine1  3.50444 0.00672408 -1.67144
HEad  -33.2633 -4.16902 -0.273339
LeftShoulder1  6.31876 -25.6001 -14.6969
LeftArm  -96.8831 -54.5527 30.8269
LeftForeArm  6.0493 -21.891 -3.86613
LeftHand  -0.25398 0.0180481 5.50724
RightShoulder  1.61022 10.1599 3.84219
RightArm  -82.3167 58.3763 -21.4946
RightForeArm  -17.5522 21.6974 5.34803
RightHand  -0.776323 9.75959 -6.4389
LeftUpLeg  -77.2899 16.271 -25.999
LeftLeg  40.8041 1.46445 1.74526
LeftFoot  -5.10134 -0.411885 8.10284
LeftToes  1.06244e-005 4.65855e-005 -8.18506e-006
1427
root  -39.9035 36.5252 -3.38827 -47.0981 -86.9133 87.0179
RightUpLeg  -81.0127 -16.4134 22.8834
RightLeg  43.7388 0.994101 0.707921
RightFoot  -2.84875 0.996698 -13.6011
RightToes  0.00048216 0.542163 -0.142577
Spine  74.5429 -4.6286 5.62224
Spine1  3.83537 -0.284899 -1.8144
HEad  -33.5516 -3.41628 -0.16667
LeftShoulder1  5.94955 -25.0318 -13.7706
LeftArm  -97.7412 -53.8453 30.3
LeftForeArm  5.74922 -22.4473 -4.23104
LeftHand  -0.25398 0.0180481 5.50724
RightShoulder  1.37745 9.7705 2.24698
RightArm  -81.6689 58.1974 -20.6091
RightForeArm  -18.0753 22.6503 5.65478
RightHand  -0.816124 9.35786 -6.90342
LeftUpLeg  -77.3031 15.9775 -25.6819
LeftLeg  41.123 1.97292 2.23688
LeftFoot  -5.73018 -0.346079 7.75817
LeftToes  1.06244e-005 4.65855e-005 -8.18506e-006
1428
root  -39.7933 36.432 -3.33885 -57.1772 -86.9305 97.0094
RightUpLeg  -81.1547 -16.2172 23.06
RightLeg  43.7677 0.791706 0.500435
RightFoot  -3.20229 0.965649 -13.7911
RightToes  0.00048216 0.542163 -0.142577
Spine  74.6373 -4.51665 5.39868
Spine1  3.79702 -0.339341 -1.91644
HEad  -33.4799 -3.03148 -0.0724113
LeftShoulder1  5.78532 -24.7863 -13.3377
LeftArm  -98.1544 -53.3652 30.1768
LeftForeArm  5.38578 -22.493 -4.26867
LeftHand  -0.25398 0.0180481 5.50724
RightShoulder  1.14379 9.37263 0.550554
RightArm  -81.1756 57.8912 -19.7679
RightForeArm  -17.8747 23.0546 5.75528
RightHand  -0.818576 9.1552 -7.00932
LeftUpLeg  -77.4462 15.7912 -25.4366
LeftLeg  41.4927 2.48801 2.75043
LeftFoot  -6.24284 -0.312867 7.86264
LeftToes  1.06244e-005 4.65855e-005 -8.18506e-006
1429
root  -39.6202 36.317 -3.2948 -67.8821 -86.8509 107.438
RightUpLeg  -81.2302 -15.8324 22.9439
RightLeg  43.9548 0.435448 0.136306
RightFoot  -3.35123 0.963967 -14.0373
RightToes  0.00048216 0.542163 -0.142577
Spine  74.8674 -4.37471 5.34014
Spine1  3.516 -0.192712 -2.01737
HEad  -33.0992 -3.09706 -0.0881345
LeftShoulder1  5.76405 -24.9247 -13.144
LeftArm  -97.8316 -53.0327 30.4284
LeftForeArm  4.95637 -22.0436 -3.99005
LeftHand  -0.25398 0.0180481 5.50724
RightShoulder  0.975522 8.94137 -0.63643
RightArm  -82.2275 57.7797 -19.9207
RightForeArm  -16.8247 22.8651 5.65551
RightHand  -0.760861 8.77926 -6.70281
LeftUpLeg  -77.6697 15.6162 -25.1336
LeftLeg  42.0811 3.11789 3.41011
LeftFoot  -6.40381 -0.313487 8.1511
LeftToes  1.06244e-005 4.65855e-005 -8.18506e-006
1430
root  -39.406 36.2123 -3.25747 -75.9154 -86.7077 114.992
RightUpLeg  -81.1208 -15.5854 22.8338
RightLeg  44.0406 0.16181 -0.146171
RightFoot  -3.47077 0.979209 -14.4785
RightToes  0.00048216 0.542163 -0.142577
Spine  75.1164 -4.30133 5.46731
Spine1  3.1955 0.00072446 -2.05977
HEad  -32.6935 -3.33899 -0.198336
LeftShoulder1  5.72455 -25.2433 -12.7417
LeftArm  -96.4632 -52.7955 30.8195
LeftForeArm  3.0885 -20.9275 -3.16973
LeftHand  -0.25398 0.0180481 5.50724
RightShoulder  0.89381 8.43751 -1.03921
RightArm  -84.9943 58.1809 -21.7667
RightForeArm  -15.1195 21.8717 5.26199
RightHand  -0.628281 7.95762 -5.91529
LeftUpLeg  -77.8673 15.4948 -24.8034
LeftLeg  42.7713 3.66363 4.02347
LeftFoot  -6.17866 -0.326485 8.05868
LeftToes  1.06244e-005 4.65855e-005 -8.18506e-006
1431
root  -39.1558 36.1557 -3.22817 -81.0591 -86.5666 119.573
RightUpLeg  -80.8138 -15.6267 22.9741
RightLeg  43.6825 0.195953 -0.111723
RightFoot  -3.48241 1.01904 -15.0677
RightToes  0.00048216 0.542163 -0.142577
Spine  75.2136 -4.25518 5.65515
Spine1  3.06394 0.160978 -1.94249
HEad  -32.318 -3.46744 -0.352291
LeftShoulder1  5.64194 -25.57 -12.1783
LeftArm  -94.4098 -52.8509 31.3262
LeftForeArm  -0.359645 -19.2089 -1.64088
LeftHand  -0.25398 0.0180481 5.50724
RightShoulder  0.825211 7.85315 -1.29221
RightArm  -88.1401 59.0402 -24.712
RightForeArm  -13.6045 19.9046 4.40684
RightHand  -0.486002 6.8972 -5.02812
LeftUpLeg  -77.8824 15.5432 -24.7134
LeftLeg  43.0328 3.92322 4.31583
LeftFoot  -5.72126 -0.360703 8.03442
LeftToes  1.06244e-005 4.65855e-005 -8.18506e-006
1432
root  -38.8477 36.1568 -3.2079 -85.2188 -86.4871 123.112
RightUpLeg  -80.2572 -15.7815 23.2952
RightLeg  42.741 0.423207 0.113711
RightFoot  -3.13585 1.10579 -15.5913
RightToes  0.00048216 0.542163 -0.142577
Spine  74.9807 -4.1669 5.75429
Spine1  3.22968 0.290429 -1.71057
HEad  -31.7196 -3.36512 -0.586844
LeftShoulder1  5.57557 -25.849 -11.7222
LeftArm  -92.3081 -53.369 31.925
LeftForeArm  -2.35368 -17.3285 0.193372
LeftHand  -0.25398 0.0180481 5.50724
RightShoulder  0.718395 7.27346 -1.9772
RightArm  -90.0212 60.2464 -27.5727
RightForeArm  -13.3965 17.2907 3.17881
RightHand  -0.478907 5.92715 -5.32673
LeftUpLeg  -77.5863 15.7559 -24.8269
LeftLeg  42.562 4.03476 4.35899
LeftFoot  -5.17416 -0.441378 8.74725
LeftToes  1.06244e-005 4.65855e-005 -8.18506e-006
1433
root  -38.4694 36.2152 -3.1992 -89.7081 -86.5607 126.666
RightUpLeg  -79.1637 -15.9565 23.6543
RightLeg  41.2697 0.573409 0.244962
RightFoot  -2.4329 1.23812 -15.9781
RightToes  0.00048216 0.542163 -0.142577
Spine  74.3971 -4.07226 5.78137
Spine1  3.5582 0.349958 -1.5269
HEad  -30.7376 -3.08707 -0.947412
LeftShoulder1  5.54633 -26.09 -11.4395
LeftArm  -89.3735 -54.341 32.163
LeftForeArm  -0.831796 -15.384 1.78234
LeftHand  -0.25398 0.0180481 5.50724
RightShoulder  0.61277 6.79174 -2.79062
RightArm  -90.3452 62.0286 -29.8329
RightForeArm  -13.8384 14.4493 2.05174
RightHand  -0.691957 5.07068 -8.03726
LeftUpLeg  -76.8429 16.0236 -24.5994
LeftLeg  41.643 4.26559 4.44703
LeftFoot  -4.41192 -0.548048 9.47391
LeftToes  1.06244e-005 4.65855e-005 -8.18506e-006
1434
root  -38.0327 36.3416 -3.20718 -94.2815 -86.741 129.712
RightUpLeg  -77.2925 -16.3614 23.9618
RightLeg  39.3727 0.661738 0.298414
RightFoot  -1.52356 1.40916 -16.3892
RightToes  0.00048216 0.542163 -0.142577
Spine  73.5999 -4.02275 5.82712
Spine1  3.99346 0.29921 -1.4392
HEad  -29.6683 -2.84447 -1.40777
LeftShoulder1  5.62758 -26.4022 -11.5169
LeftArm  -84.218 -55.7528 31.4132
LeftForeArm  1.48205 -12.7495 2.82196
LeftHand  -0.25398 0.0180481 5.50724
RightShoulder  0.550221 6.39731 -3.24182
RightArm  -89.8871 64.6325 -31.3488
RightForeArm  -12.3687 11.3117 1.31052
RightHand  -1.02199 4.27481 -12.5688
LeftUpLeg  -75.4218 16.2866 -23.7353
LeftLeg  40.5376 4.71604 4.69602
LeftFoot  -3.21854 -0.638076 9.25314
LeftToes  1.06244e-005 4.65855e-005 -8.18506e-006
1435
root  -37.5514 36.5398 -3.23714 -97.6226 -86.7964 130.961
RightUpLeg  -74.7609 -17.1349 24.0189
RightLeg  37.142 0.934549 0.486636
RightFoot  -0.326406 1.64097 -16.891
RightToes  0.00048216 0.542163 -0.142577
Spine  72.6861 -3.95061 5.85894
Spine1  4.7343 0.216614 -1.33338
HEad  -29.001 -2.86457 -1.96018
LeftShoulder1  5.95938 -26.8584 -12.3954
LeftArm  -78.3818 -57.5029 29.126
LeftForeArm  1.79843 -9.18914 2.86279
LeftHand  -0.25398 0.0180481 5.50724
RightShoulder  0.532546 6.14685 -3.28329
RightArm  -88.3809 67.7469 -30.9266
RightForeArm  -7.91556 7.82583 0.901178
RightHand  -1.30364 3.71988 -16.8169
LeftUpLeg  -73.1154 16.6469 -22.7472
LeftLeg  38.8997 5.26298 4.91473
LeftFoot  -1.67607 -0.743471 8.87958
LeftToes  1.06244e-005 4.65855e-005 -8.18506e-006
1436
root  -37.0354 36.8001 -3.29041 -98.1378 -86.6227 129.047
RightUpLeg  -71.7908 -18.1762 23.6322
RightLeg  34.5739 1.4583 0.819829
RightFoot  1.30654 1.93609 -17.2367
RightToes  0.00048216 0.542163 -0.142577
Spine  71.6993 -3.81522 5.81728
Spine1  5.70473 0.215822 -1.18114
HEad  -28.7468 -3.14114 -2.59661
LeftShoulder1  6.54048 -27.3025 -14.1396
LeftArm  -72.8329 -59.1824 24.294
LeftForeArm  1.22409 -5.69746 2.18549
LeftHand  -0.25398 0.0180481 5.50724
RightShoulder  0.604567 6.3881 -2.6116
RightArm  -82.8513 70.495 -25.8442
RightForeArm  -3.52719 4.7984 0.890738
RightHand  -1.53356 3.76411 -19.591
LeftUpLeg  -69.9287 17.2778 -22.2034
LeftLeg  36.2273 5.55097 4.72274
LeftFoot  -0.106224 -0.9101 9.23301
LeftToes  1.06244e-005 4.65855e-005 -8.18506e-006
